<?xml version="1.0" encoding="UTF-8" standalone="no"?>
<!-- Created with Inkscape (http://www.inkscape.org/) -->

<svg
   xmlns:dc="http://purl.org/dc/elements/1.1/"
   xmlns:cc="http://creativecommons.org/ns#"
   xmlns:rdf="http://www.w3.org/1999/02/22-rdf-syntax-ns#"
   xmlns:svg="http://www.w3.org/2000/svg"
   xmlns="http://www.w3.org/2000/svg"
   xmlns:sodipodi="http://sodipodi.sourceforge.net/DTD/sodipodi-0.dtd"
   xmlns:inkscape="http://www.inkscape.org/namespaces/inkscape"
   width="934.24567"
   height="199.16258"
   id="svg3110"
   version="1.1"
   inkscape:version="0.48.4 r9939"
   sodipodi:docname="Nuevo documento 5">
  <defs
     id="defs3112">
    <clipPath
       clipPathUnits="userSpaceOnUse"
       id="clipPath38">
      <path
         d="m 0,606.619 853.229,0 L 853.229,0 0,0 0,606.619 z"
         id="path40"
         inkscape:connector-curvature="0" />
    </clipPath>
  </defs>
  <sodipodi:namedview
     id="base"
     pagecolor="#ffffff"
     bordercolor="#666666"
     borderopacity="1.0"
     inkscape:pageopacity="0.0"
     inkscape:pageshadow="2"
     inkscape:zoom="0.35"
     inkscape:cx="459.97996"
     inkscape:cy="-40.41871"
     inkscape:document-units="px"
     inkscape:current-layer="layer1"
     showgrid="false"
     fit-margin-top="0"
     fit-margin-left="0"
     fit-margin-right="0"
     fit-margin-bottom="0"
     inkscape:window-width="1366"
     inkscape:window-height="716"
     inkscape:window-x="0"
     inkscape:window-y="0"
     inkscape:window-maximized="1" />
  <metadata
     id="metadata3115">
    <rdf:RDF>
      <cc:Work
         rdf:about="">
        <dc:format>image/svg+xml</dc:format>
        <dc:type
           rdf:resource="http://purl.org/dc/dcmitype/StillImage" />
        <dc:title></dc:title>
      </cc:Work>
    </rdf:RDF>
  </metadata>
  <g
     inkscape:label="Capa 1"
     inkscape:groupmode="layer"
     id="layer1"
     transform="translate(109.97996,-292.78089)">
    <g
       id="g3057"
       transform="matrix(2.0479019,0,0,-2.0479019,-816.80982,961.32095)">
      <text
         id="text28"
         transform="matrix(1,0,0,-1,564.5718,301.4727)">
        <tspan
           id="tspan30"
           sodipodi:role="line"
           y="0"
           x="0 31.104 47.088001 63.071999 73.080002 83.087997 101.088 108.072 134.064 152.064 170.064 180.07201 194.076 212.076 224.064"
           style="font-size:36px;font-variant:normal;font-weight:normal;font-stretch:normal;writing-mode:lr-tb;fill:#00527c;fill-opacity:1;fill-rule:nonzero;stroke:none;font-family:Times New Roman;-inkscape-font-specification:TimesNewRomanPSMT">Wealth Advisors</tspan>
        <tspan
           id="tspan32"
           sodipodi:role="line"
           y="34.883999"
           x="1.008 23.004 48.995998 69.012001"
           style="font-size:36px;font-variant:normal;font-weight:normal;font-stretch:normal;writing-mode:lr-tb;fill:#7b7979;fill-opacity:1;fill-rule:nonzero;stroke:none;font-family:Times New Roman;-inkscape-font-specification:TimesNewRomanPSMT">EAFI</tspan>
      </text>
      <g
         id="g34">
        <g
           clip-path="url(#clipPath38)"
           id="g36">
          <g
             transform="translate(351.0073,229.1992)"
             id="g42">
            <path
               inkscape:connector-curvature="0"
               id="path44"
               style="fill:#00527c;fill-opacity:1;fill-rule:nonzero;stroke:none"
               d="m 0,0 68.327,85.087 0.276,-39.077 3.565,4.278 0,46.24 L -5.859,0 0,0 z" />
          </g>
          <g
             transform="translate(419.4673,264.9395)"
             id="g46">
            <path
               inkscape:connector-curvature="0"
               id="path48"
               style="fill:#00527c;fill-opacity:1;fill-rule:nonzero;stroke:none"
               d="m 0,0 3.708,4.137 0,-39.877 L 0,-35.74 0,0 z" />
          </g>
          <g
             transform="translate(384.1621,229.1992)"
             id="g50">
            <path
               inkscape:connector-curvature="0"
               id="path52"
               style="fill:#00527c;fill-opacity:1;fill-rule:nonzero;stroke:none"
               d="M 0,0 77.808,96.528 77.808,0 73.813,0 74.099,85.373 5.211,0 0,0 z" />
          </g>
          <g
             transform="translate(481.8413,230.1211)"
             id="g54">
            <path
               inkscape:connector-curvature="0"
               id="path56"
               style="fill:#00527c;fill-opacity:1;fill-rule:nonzero;stroke:none"
               d="m 0,0 27.099,0 1.426,2.947 -25.387,0 L 0,0 z" />
          </g>
          <g
             transform="translate(467.4604,324.8252)"
             id="g58">
            <path
               inkscape:connector-curvature="0"
               id="path60"
               style="fill:#00527c;fill-opacity:1;fill-rule:nonzero;stroke:none"
               d="m 0,0 0,-94.704 3.423,2.853 0,88.618 34.726,0 1.593,3.055 L 0,0 z" />
          </g>
          <g
             transform="translate(551.1089,280.4746)"
             id="g62">
            <path
               inkscape:connector-curvature="0"
               id="path64"
               style="fill:#00527c;fill-opacity:1;fill-rule:nonzero;stroke:none"
               d="m 0,0 c 2.331,-47.252 -30.562,-48.546 -42.168,-50.354 l -3.802,2.487 c 11.607,1.807 44.494,0.672 42.643,48.448" />
          </g>
          <g
             transform="translate(551.1089,280.3213)"
             id="g66">
            <path
               inkscape:connector-curvature="0"
               id="path68"
               style="fill:#00527c;fill-opacity:1;fill-rule:nonzero;stroke:none"
               d="m 0,0 c -1.915,11.589 -7.938,47.326 -55.333,44.396 l -2.3,-2.939 C -9.877,43.756 -5.242,12.17 -3.327,0.581 L 0,0 z" />
          </g>
        </g>
      </g>
    </g>
  </g>
</svg>
