<?xml version="1.0" encoding="UTF-8" standalone="no"?>
<!-- Created with Inkscape (http://www.inkscape.org/) -->

<svg
   xmlns:dc="http://purl.org/dc/elements/1.1/"
   xmlns:cc="http://creativecommons.org/ns#"
   xmlns:rdf="http://www.w3.org/1999/02/22-rdf-syntax-ns#"
   xmlns:svg="http://www.w3.org/2000/svg"
   xmlns="http://www.w3.org/2000/svg"
   xmlns:sodipodi="http://sodipodi.sourceforge.net/DTD/sodipodi-0.dtd"
   xmlns:inkscape="http://www.inkscape.org/namespaces/inkscape"
   id="svg2"
   version="1.1"
   inkscape:version="0.48.4 r9939"
   width="694.14996"
   height="127.17689"
   xml:space="preserve"
   sodipodi:docname="logo.svg"
   inkscape:export-filename="/home/inaki/Imágenes/MD Wealth Advisors/LOGO EAFI.png"
   inkscape:export-xdpi="90"
   inkscape:export-ydpi="90"><metadata
     id="metadata8"><rdf:RDF><cc:Work
         rdf:about=""><dc:format>image/svg+xml</dc:format><dc:type
           rdf:resource="http://purl.org/dc/dcmitype/StillImage" /><dc:title /></cc:Work></rdf:RDF></metadata><defs
     id="defs6"><clipPath
       clipPathUnits="userSpaceOnUse"
       id="clipPath16"><path
         d="m 0,606.619 853.229,0 L 853.229,0 0,0 0,606.619 z"
         id="path18"
         inkscape:connector-curvature="0" /></clipPath><clipPath
       clipPathUnits="userSpaceOnUse"
       id="clipPath38"><path
         d="m 0,606.619 853.229,0 L 853.229,0 0,0 0,606.619 z"
         id="path40"
         inkscape:connector-curvature="0" /></clipPath></defs><sodipodi:namedview
     pagecolor="#ffffff"
     bordercolor="#666666"
     borderopacity="1"
     objecttolerance="10"
     gridtolerance="10"
     guidetolerance="10"
     inkscape:pageopacity="0"
     inkscape:pageshadow="2"
     inkscape:window-width="1366"
     inkscape:window-height="716"
     id="namedview4"
     showgrid="false"
     inkscape:zoom="0.87885424"
     inkscape:cx="333.17205"
     inkscape:cy="98.249736"
     inkscape:window-x="0"
     inkscape:window-y="0"
     inkscape:window-maximized="1"
     inkscape:current-layer="g10"
     fit-margin-top="0"
     fit-margin-left="0"
     fit-margin-right="0"
     fit-margin-bottom="0" /><g
     id="g10"
     inkscape:groupmode="layer"
     inkscape:label="LOGO EAFI"
     transform="matrix(1.25,0,0,-1.25,-307.53099,408.06402)"><g
       id="g12"
       transform="matrix(0.31567997,0,0,0.31567997,228.92412,168.2183)"><g
         id="g14"
         clip-path="url(#clipPath16)"><g
           id="g20"
           transform="translate(368.1709,341.9512)"><path
             d="m 0,0 c 0,-86.709 -70.291,-157 -157,-157 -86.708,0 -157,70.291 -157,157 0,86.708 70.292,157 157,157 C -70.291,157 0,86.708 0,0"
             style="fill:#00527c;fill-opacity:1;fill-rule:nonzero;stroke:none"
             id="path22"
             inkscape:connector-curvature="0" /></g><g
           id="g24"
           transform="translate(103.1978,226.9805)"><path
             d="m 0,0 c 0,0 37.973,-48.029 107.973,-48.029 73,0 107.978,48.029 107.978,48.029 l -31.978,89.971 -36,31 -10,43 -29.998,13 -39.002,-18 L 0,0 z"
             style="fill:#ffffff;fill-opacity:1;fill-rule:nonzero;stroke:none"
             id="path26"
             inkscape:connector-curvature="0" /></g></g></g><text
       transform="matrix(1,0,0,-1,564.5718,301.4727)"
       id="text28"><tspan
         style="font-size:36px;font-variant:normal;font-weight:normal;font-stretch:normal;writing-mode:lr-tb;fill:#00527c;fill-opacity:1;fill-rule:nonzero;stroke:none;font-family:Times New Roman;-inkscape-font-specification:TimesNewRomanPSMT"
         x="0 31.104 47.088001 63.071999 73.080002 83.087997 101.088 108.072 134.064 152.064 170.064 180.07201 194.076 212.076 224.064"
         y="0"
         sodipodi:role="line"
         id="tspan30">Wealth Advisors</tspan><tspan
         style="font-size:36px;font-variant:normal;font-weight:normal;font-stretch:normal;writing-mode:lr-tb;fill:#7b7979;fill-opacity:1;fill-rule:nonzero;stroke:none;font-family:Times New Roman;-inkscape-font-specification:TimesNewRomanPSMT"
         x="1.008 23.004 48.995998 69.012001"
         y="34.883999"
         sodipodi:role="line"
         id="tspan32">EAFI</tspan></text>
<g
       id="g34"><g
         id="g36"
         clip-path="url(#clipPath38)"><g
           id="g42"
           transform="translate(351.0073,229.1992)"><path
             d="m 0,0 68.327,85.087 0.276,-39.077 3.565,4.278 0,46.24 L -5.859,0 0,0 z"
             style="fill:#00527c;fill-opacity:1;fill-rule:nonzero;stroke:none"
             id="path44"
             inkscape:connector-curvature="0" /></g><g
           id="g46"
           transform="translate(419.4673,264.9395)"><path
             d="m 0,0 3.708,4.137 0,-39.877 L 0,-35.74 0,0 z"
             style="fill:#00527c;fill-opacity:1;fill-rule:nonzero;stroke:none"
             id="path48"
             inkscape:connector-curvature="0" /></g><g
           id="g50"
           transform="translate(384.1621,229.1992)"><path
             d="M 0,0 77.808,96.528 77.808,0 73.813,0 74.099,85.373 5.211,0 0,0 z"
             style="fill:#00527c;fill-opacity:1;fill-rule:nonzero;stroke:none"
             id="path52"
             inkscape:connector-curvature="0" /></g><g
           id="g54"
           transform="translate(481.8413,230.1211)"><path
             d="m 0,0 27.099,0 1.426,2.947 -25.387,0 L 0,0 z"
             style="fill:#00527c;fill-opacity:1;fill-rule:nonzero;stroke:none"
             id="path56"
             inkscape:connector-curvature="0" /></g><g
           id="g58"
           transform="translate(467.4604,324.8252)"><path
             d="m 0,0 0,-94.704 3.423,2.853 0,88.618 34.726,0 1.593,3.055 L 0,0 z"
             style="fill:#00527c;fill-opacity:1;fill-rule:nonzero;stroke:none"
             id="path60"
             inkscape:connector-curvature="0" /></g><g
           id="g62"
           transform="translate(551.1089,280.4746)"><path
             d="m 0,0 c 2.331,-47.252 -30.562,-48.546 -42.168,-50.354 l -3.802,2.487 c 11.607,1.807 44.494,0.672 42.643,48.448"
             style="fill:#00527c;fill-opacity:1;fill-rule:nonzero;stroke:none"
             id="path64"
             inkscape:connector-curvature="0" /></g><g
           id="g66"
           transform="translate(551.1089,280.3213)"><path
             d="m 0,0 c -1.915,11.589 -7.938,47.326 -55.333,44.396 l -2.3,-2.939 C -9.877,43.756 -5.242,12.17 -3.327,0.581 L 0,0 z"
             style="fill:#00527c;fill-opacity:1;fill-rule:nonzero;stroke:none"
             id="path68"
             inkscape:connector-curvature="0" /></g></g></g></g></svg>